<mxfile host="app.diagrams.net" modified="2022-05-16T14:11:12.615Z" agent="5.0 (Windows NT 10.0; Win64; x64) AppleWebKit/537.36 (KHTML, like Gecko) Chrome/101.0.4951.41 Safari/537.36 Edg/101.0.1210.32" etag="zyfEGnzjRapt4oC-i7Kq" version="18.0.3" type="github">
  <diagram name="Page-1" id="97916047-d0de-89f5-080d-49f4d83e522f">
    <mxGraphModel dx="1288" dy="796" grid="1" gridSize="10" guides="1" tooltips="1" connect="1" arrows="1" fold="1" page="1" pageScale="1.5" pageWidth="1169" pageHeight="827" background="none" math="0" shadow="0">
      <root>
        <mxCell id="0" />
        <mxCell id="1" parent="0" />
        <mxCell id="2" value="资源修改" style="rounded=1;fillColor=#10739E;strokeColor=none;shadow=1;gradientColor=none;fontStyle=1;fontColor=#FFFFFF;fontSize=14;" parent="1" vertex="1">
          <mxGeometry x="679" y="240" width="200" height="60" as="geometry" />
        </mxCell>
        <mxCell id="4" value="新资源增加" style="rounded=1;fillColor=#10739E;strokeColor=none;shadow=1;gradientColor=none;fontStyle=1;fontColor=#FFFFFF;fontSize=14;" parent="1" vertex="1">
          <mxGeometry x="280" y="455.5" width="200" height="60" as="geometry" />
        </mxCell>
        <mxCell id="5" value="已有资源纯视觉修改" style="rounded=1;fillColor=#10739E;strokeColor=none;shadow=1;gradientColor=none;fontStyle=1;fontColor=#FFFFFF;fontSize=14;" parent="1" vertex="1">
          <mxGeometry x="679" y="455.5" width="200" height="60" as="geometry" />
        </mxCell>
        <mxCell id="6" value="已有资源结构性修改" style="rounded=1;fillColor=#10739E;strokeColor=none;shadow=1;gradientColor=none;fontStyle=1;fontColor=#FFFFFF;fontSize=14;" parent="1" vertex="1">
          <mxGeometry x="1081" y="455.5" width="200" height="60" as="geometry" />
        </mxCell>
        <mxCell id="8" value="Lua蓝图资源配置表" style="rounded=1;fillColor=#10739E;strokeColor=none;shadow=1;gradientColor=none;fontStyle=1;fontColor=#FFFFFF;fontSize=14;" parent="1" vertex="1">
          <mxGeometry x="280" y="740" width="200" height="60" as="geometry" />
        </mxCell>
        <mxCell id="13" value="直接在资源目录修改提交" style="rounded=1;fillColor=#10739E;strokeColor=none;shadow=1;gradientColor=none;fontStyle=1;fontColor=#FFFFFF;fontSize=14;" parent="1" vertex="1">
          <mxGeometry x="679" y="740" width="200" height="60" as="geometry" />
        </mxCell>
        <mxCell id="23" value="拷贝到ReImport目录下修改&#xa;并提交" style="rounded=1;fillColor=#10739E;strokeColor=none;shadow=1;gradientColor=none;fontStyle=1;fontColor=#FFFFFF;fontSize=14;" parent="1" vertex="1">
          <mxGeometry x="1090" y="740" width="200" height="60" as="geometry" />
        </mxCell>
        <mxCell id="30" value="" style="edgeStyle=elbowEdgeStyle;elbow=vertical;strokeWidth=4;endArrow=block;endFill=1;fontStyle=1;strokeColor=#23445D;" parent="1" edge="1">
          <mxGeometry x="30" y="140.5" width="100" height="100" as="geometry">
            <mxPoint x="780" y="345" as="sourcePoint" />
            <mxPoint x="780" y="455" as="targetPoint" />
            <Array as="points">
              <mxPoint x="779" y="405" />
            </Array>
          </mxGeometry>
        </mxCell>
        <mxCell id="31" value="" style="edgeStyle=elbowEdgeStyle;elbow=vertical;strokeWidth=4;endArrow=block;endFill=1;fontStyle=1;strokeColor=#23445D;entryX=0.5;entryY=0;entryDx=0;entryDy=0;" parent="1" edge="1">
          <mxGeometry x="24" y="169.5" width="100" height="100" as="geometry">
            <mxPoint x="780" y="330" as="sourcePoint" />
            <mxPoint x="381" y="455.5" as="targetPoint" />
            <Array as="points">
              <mxPoint x="712" y="374" />
              <mxPoint x="742" y="374" />
              <mxPoint x="732" y="364" />
            </Array>
          </mxGeometry>
        </mxCell>
        <mxCell id="32" value="" style="edgeStyle=elbowEdgeStyle;elbow=vertical;strokeWidth=4;endArrow=block;endFill=1;fontStyle=1;strokeColor=#23445D;exitX=0.505;exitY=1;exitDx=0;exitDy=0;exitPerimeter=0;" parent="1" source="2" edge="1">
          <mxGeometry x="30" y="159.5" width="100" height="100" as="geometry">
            <mxPoint x="780" y="310" as="sourcePoint" />
            <mxPoint x="1180" y="450" as="targetPoint" />
            <Array as="points">
              <mxPoint x="798" y="374" />
              <mxPoint x="778" y="364" />
              <mxPoint x="968" y="424" />
            </Array>
          </mxGeometry>
        </mxCell>
        <mxCell id="50" value="" style="edgeStyle=elbowEdgeStyle;elbow=vertical;strokeWidth=4;endArrow=block;endFill=1;fontStyle=1;strokeColor=#23445D;exitX=0.5;exitY=1;exitDx=0;exitDy=0;entryX=0.5;entryY=0;entryDx=0;entryDy=0;" parent="1" source="4" target="ECGBMCHHsJit0qDQUd_v-60" edge="1">
          <mxGeometry x="92" y="400" width="100" height="100" as="geometry">
            <mxPoint x="92" y="500" as="sourcePoint" />
            <mxPoint x="192" y="400" as="targetPoint" />
            <Array as="points">
              <mxPoint x="390" y="550" />
            </Array>
          </mxGeometry>
        </mxCell>
        <mxCell id="ECGBMCHHsJit0qDQUd_v-60" value="重构资源规范" style="rounded=1;fillColor=#10739E;strokeColor=none;shadow=1;gradientColor=none;fontStyle=1;fontColor=#FFFFFF;fontSize=14;" vertex="1" parent="1">
          <mxGeometry x="280" y="600" width="200" height="60" as="geometry" />
        </mxCell>
        <mxCell id="ECGBMCHHsJit0qDQUd_v-65" value="" style="edgeStyle=elbowEdgeStyle;elbow=vertical;strokeWidth=4;endArrow=block;endFill=1;fontStyle=1;strokeColor=#23445D;exitX=0.5;exitY=1;exitDx=0;exitDy=0;entryX=0.5;entryY=0;entryDx=0;entryDy=0;" edge="1" parent="1">
          <mxGeometry x="91.58" y="544.5" width="100" height="100" as="geometry">
            <mxPoint x="379.58" y="660" as="sourcePoint" />
            <mxPoint x="379.58" y="744.5" as="targetPoint" />
            <Array as="points">
              <mxPoint x="389.58" y="694.5" />
            </Array>
          </mxGeometry>
        </mxCell>
        <mxCell id="ECGBMCHHsJit0qDQUd_v-67" value="是否最新资源目录下" style="rhombus;whiteSpace=wrap;html=1;fontSize=14;fillColor=#10739E;strokeColor=none;fontColor=#FFFFFF;rounded=1;shadow=1;gradientColor=none;fontStyle=1;" vertex="1" parent="1">
          <mxGeometry x="680" y="600" width="200" height="80" as="geometry" />
        </mxCell>
        <mxCell id="ECGBMCHHsJit0qDQUd_v-70" value="" style="edgeStyle=elbowEdgeStyle;elbow=vertical;strokeWidth=4;endArrow=block;endFill=1;fontStyle=1;strokeColor=#23445D;exitX=0.5;exitY=1;exitDx=0;exitDy=0;entryX=0.5;entryY=0;entryDx=0;entryDy=0;" edge="1" parent="1">
          <mxGeometry x="491.58" y="404.5" width="100" height="100" as="geometry">
            <mxPoint x="779.5799999999999" y="520" as="sourcePoint" />
            <mxPoint x="779.5799999999999" y="604.5" as="targetPoint" />
            <Array as="points">
              <mxPoint x="789.5799999999999" y="554.5" />
            </Array>
          </mxGeometry>
        </mxCell>
        <mxCell id="ECGBMCHHsJit0qDQUd_v-71" value="" style="edgeStyle=elbowEdgeStyle;elbow=vertical;strokeWidth=4;endArrow=block;endFill=1;fontStyle=1;strokeColor=#23445D;exitX=0.5;exitY=1;exitDx=0;exitDy=0;" edge="1" parent="1">
          <mxGeometry x="491.58" y="564.5" width="100" height="100" as="geometry">
            <mxPoint x="779.5799999999999" y="680" as="sourcePoint" />
            <mxPoint x="780" y="740" as="targetPoint" />
            <Array as="points">
              <mxPoint x="789.5799999999999" y="714.5" />
            </Array>
          </mxGeometry>
        </mxCell>
        <mxCell id="ECGBMCHHsJit0qDQUd_v-75" value="是" style="edgeLabel;html=1;align=center;verticalAlign=middle;resizable=0;points=[];" vertex="1" connectable="0" parent="ECGBMCHHsJit0qDQUd_v-71">
          <mxGeometry relative="1" as="geometry">
            <mxPoint y="-17" as="offset" />
          </mxGeometry>
        </mxCell>
        <mxCell id="ECGBMCHHsJit0qDQUd_v-72" value="" style="edgeStyle=elbowEdgeStyle;elbow=vertical;strokeWidth=4;endFill=1;fontStyle=1;strokeColor=#23445D;startFill=1;sketch=0;endArrow=none;" edge="1" parent="1">
          <mxGeometry x="102" y="367" width="100" height="100" as="geometry">
            <mxPoint x="680" y="640" as="sourcePoint" />
            <mxPoint x="559" y="372" as="targetPoint" />
            <Array as="points">
              <mxPoint x="559" y="640" />
              <mxPoint x="599" y="642" />
            </Array>
          </mxGeometry>
        </mxCell>
        <mxCell id="ECGBMCHHsJit0qDQUd_v-105" value="否" style="edgeLabel;html=1;align=center;verticalAlign=middle;resizable=0;points=[];" vertex="1" connectable="0" parent="ECGBMCHHsJit0qDQUd_v-72">
          <mxGeometry relative="1" as="geometry">
            <mxPoint x="111" y="73" as="offset" />
          </mxGeometry>
        </mxCell>
        <mxCell id="ECGBMCHHsJit0qDQUd_v-82" value="是否最新资源目录下" style="rhombus;whiteSpace=wrap;html=1;fontSize=14;fillColor=#10739E;strokeColor=none;fontColor=#FFFFFF;rounded=1;shadow=1;gradientColor=none;fontStyle=1;" vertex="1" parent="1">
          <mxGeometry x="1081" y="600" width="200" height="80" as="geometry" />
        </mxCell>
        <mxCell id="ECGBMCHHsJit0qDQUd_v-83" value="" style="edgeStyle=elbowEdgeStyle;elbow=vertical;strokeWidth=4;endArrow=block;endFill=1;fontStyle=1;strokeColor=#23445D;exitX=0.5;exitY=1;exitDx=0;exitDy=0;entryX=0.5;entryY=0;entryDx=0;entryDy=0;" edge="1" parent="1">
          <mxGeometry x="892.5799999999999" y="402.25" width="100" height="100" as="geometry">
            <mxPoint x="1180.58" y="517.75" as="sourcePoint" />
            <mxPoint x="1180.58" y="602.25" as="targetPoint" />
            <Array as="points">
              <mxPoint x="1190.58" y="552.25" />
            </Array>
          </mxGeometry>
        </mxCell>
        <mxCell id="ECGBMCHHsJit0qDQUd_v-84" value="" style="edgeStyle=elbowEdgeStyle;elbow=vertical;strokeWidth=4;endArrow=block;endFill=1;fontStyle=1;strokeColor=#23445D;exitX=0.5;exitY=1;exitDx=0;exitDy=0;" edge="1" parent="1">
          <mxGeometry x="892.5799999999999" y="564.5" width="100" height="100" as="geometry">
            <mxPoint x="1180.58" y="680" as="sourcePoint" />
            <mxPoint x="1181" y="740" as="targetPoint" />
            <Array as="points">
              <mxPoint x="1190.58" y="714.5" />
            </Array>
          </mxGeometry>
        </mxCell>
        <mxCell id="ECGBMCHHsJit0qDQUd_v-85" value="是" style="edgeLabel;html=1;align=center;verticalAlign=middle;resizable=0;points=[];" vertex="1" connectable="0" parent="ECGBMCHHsJit0qDQUd_v-84">
          <mxGeometry relative="1" as="geometry">
            <mxPoint y="-17" as="offset" />
          </mxGeometry>
        </mxCell>
        <mxCell id="ECGBMCHHsJit0qDQUd_v-98" value="" style="edgeStyle=elbowEdgeStyle;elbow=horizontal;strokeWidth=4;endFill=1;fontStyle=1;strokeColor=default;startFill=1;sketch=0;endArrow=none;" edge="1" parent="1">
          <mxGeometry width="50" height="50" relative="1" as="geometry">
            <mxPoint x="1080" y="640" as="sourcePoint" />
            <mxPoint x="560" y="550" as="targetPoint" />
            <Array as="points">
              <mxPoint x="970" y="600" />
            </Array>
          </mxGeometry>
        </mxCell>
        <mxCell id="ECGBMCHHsJit0qDQUd_v-99" value="否" style="edgeLabel;html=1;align=center;verticalAlign=middle;resizable=0;points=[];" vertex="1" connectable="0" parent="ECGBMCHHsJit0qDQUd_v-98">
          <mxGeometry x="-0.961" relative="1" as="geometry">
            <mxPoint as="offset" />
          </mxGeometry>
        </mxCell>
        <mxCell id="ECGBMCHHsJit0qDQUd_v-102" value="" style="edgeStyle=elbowEdgeStyle;elbow=horizontal;strokeWidth=4;endFill=1;fontStyle=1;strokeColor=#23445D;startFill=1;sketch=0;endArrow=none;" edge="1" parent="1">
          <mxGeometry width="50" height="50" relative="1" as="geometry">
            <mxPoint x="1081" y="640" as="sourcePoint" />
            <mxPoint x="560" y="550" as="targetPoint" />
            <Array as="points">
              <mxPoint x="971" y="600" />
            </Array>
          </mxGeometry>
        </mxCell>
        <mxCell id="ECGBMCHHsJit0qDQUd_v-103" value="否" style="edgeLabel;html=1;align=center;verticalAlign=middle;resizable=0;points=[];" vertex="1" connectable="0" parent="ECGBMCHHsJit0qDQUd_v-102">
          <mxGeometry x="-0.961" relative="1" as="geometry">
            <mxPoint as="offset" />
          </mxGeometry>
        </mxCell>
      </root>
    </mxGraphModel>
  </diagram>
</mxfile>
